<svg width="200" height="200" viewBox="0 0 200 200" fill="none" xmlns="http://www.w3.org/2000/svg">
<circle cx="100" cy="100" r="100" fill="white" fill-opacity="0.7"/>
<circle cx="99.732" cy="99.7315" r="83.6085" fill="#F3F4F6"/>
<circle cx="100.042" cy="100.042" r="52.7473" fill="white"/>
<path d="M65.9195 107.998C64.9823 107.998 64.5137 107.513 64.5137 106.543V92.1892C64.5137 91.2192 64.9987 90.7341 65.9688 90.7341H72.4058C74.0171 90.7341 75.2914 91.1123 76.2286 91.8686C77.1822 92.625 77.659 93.8992 77.659 95.6914C77.659 97.4836 77.1822 98.766 76.2286 99.5388C75.2914 100.312 74.0171 100.698 72.4058 100.698H67.3499V106.543C67.3499 107.513 66.8731 107.998 65.9195 107.998ZM67.3499 98.0344H72.0112C72.8498 98.0344 73.4992 97.8535 73.9596 97.4918C74.42 97.1301 74.6501 96.5299 74.6501 95.6914C74.6501 94.8693 74.42 94.2774 73.9596 93.9157C73.4992 93.5539 72.8498 93.3731 72.0112 93.3731H67.3499V98.0344Z" fill="#3F3F46"/>
<path d="M54.0416 108.393C52.4796 108.393 51.082 108.023 49.8489 107.283C48.6322 106.543 47.6786 105.499 46.988 104.151C46.2974 102.786 45.9521 101.191 45.9521 99.366C45.9521 97.5245 46.2974 95.9296 46.988 94.5814C47.6786 93.2167 48.6322 92.1644 49.8489 91.4245C51.082 90.6682 52.4796 90.29 54.0416 90.29C55.6036 90.29 56.9847 90.6682 58.185 91.4245C59.4017 92.1644 60.3553 93.2167 61.0459 94.5814C61.7529 95.9296 62.1064 97.5245 62.1064 99.366C62.1064 101.191 61.7529 102.786 61.0459 104.151C60.3553 105.499 59.4017 106.543 58.185 107.283C56.9847 108.023 55.6036 108.393 54.0416 108.393ZM54.0416 105.63C55.0774 105.63 55.9735 105.376 56.7299 104.866C57.4862 104.34 58.0699 103.608 58.4809 102.671C58.9084 101.717 59.1222 100.616 59.1222 99.366C59.1222 98.1 58.9084 96.9984 58.4809 96.0612C58.0699 95.1075 57.4862 94.3759 56.7299 93.8662C55.9735 93.34 55.0774 93.077 54.0416 93.077C53.0222 93.077 52.1261 93.34 51.3533 93.8662C50.5806 94.3759 49.9804 95.1075 49.5529 96.0612C49.1419 96.9984 48.9364 98.1 48.9364 99.366C48.9364 100.616 49.1419 101.717 49.5529 102.671C49.9804 103.608 50.5806 104.34 51.3533 104.866C52.1261 105.376 53.0222 105.63 54.0416 105.63Z" fill="#3F3F46"/>
<path d="M38.5435 108.148C37.5687 108.148 37.0813 107.649 37.0813 106.65V93.0878H33.3143C32.3395 93.0878 31.8521 92.6391 31.8521 91.7418C31.8521 90.8275 32.3395 90.3704 33.3143 90.3704H43.6984C44.6897 90.3704 45.1854 90.8275 45.1854 91.7418C45.1854 92.6391 44.6897 93.0878 43.6984 93.0878H39.9809V106.65C39.9809 107.649 39.5018 108.148 38.5435 108.148Z" fill="#3F3F46"/>
<path d="M146.362 108.026C145.382 108.026 144.893 107.527 144.893 106.531V91.7849C144.893 91.2106 145.036 90.8221 145.323 90.6194C145.627 90.3998 146.067 90.29 146.641 90.29C147.418 90.29 148.009 90.6279 148.414 91.3035L152.899 98.8031L157.333 91.3288C157.569 90.9066 157.84 90.6279 158.144 90.4927C158.465 90.3576 158.878 90.29 159.385 90.29C160.382 90.29 160.88 90.7883 160.88 91.7849V106.531C160.88 107.527 160.382 108.026 159.385 108.026C158.388 108.026 157.89 107.527 157.89 106.531V95.3827L154.318 101.565C153.963 102.257 153.482 102.604 152.874 102.604C152.266 102.604 151.784 102.257 151.429 101.565L147.832 95.3827V106.531C147.832 107.527 147.342 108.026 146.362 108.026Z" fill="#3F3F46"/>
<path d="M127.37 108.026C126.407 108.026 125.926 107.527 125.926 106.531V91.7849C125.926 90.7883 126.424 90.29 127.421 90.29H134.033C135.689 90.29 136.998 90.6785 137.961 91.4555C138.94 92.2325 139.43 93.5416 139.43 95.3827C139.43 96.9367 139.075 98.119 138.366 98.9298C137.657 99.7237 136.677 100.214 135.427 100.399L138.341 106.252C138.594 106.776 138.645 107.206 138.493 107.544C138.341 107.865 138.02 108.026 137.53 108.026H137.049C136.204 108.026 135.621 107.646 135.3 106.885L132.387 100.526H128.839V106.531C128.839 107.527 128.35 108.026 127.37 108.026ZM128.839 97.7896H133.628C134.49 97.7896 135.157 97.6038 135.63 97.2322C136.103 96.8606 136.339 96.2441 136.339 95.3827C136.339 94.5381 136.103 93.9301 135.63 93.5585C135.157 93.1868 134.49 93.001 133.628 93.001H128.839V97.7896Z" fill="#3F3F46"/>
<path d="M100.315 118.627C90.0454 118.627 81.6914 110.343 81.6914 100.159C81.6914 89.9753 90.0454 81.6912 100.315 81.6912C104.406 81.6912 108.286 82.9774 111.538 85.4123C114.767 87.8289 117.07 91.1446 118.194 94.9957C118.519 96.1053 117.875 97.2668 116.753 97.589C115.632 97.9112 114.463 97.272 114.138 96.1598C112.372 90.1052 106.685 85.8774 100.315 85.8774C92.375 85.8774 85.913 92.2828 85.913 100.159C85.913 108.035 92.3724 114.441 100.315 114.441C106.586 114.441 112.089 110.478 114.01 104.576C114.369 103.477 115.558 102.872 116.667 103.228C117.775 103.584 118.386 104.764 118.027 105.863C115.54 113.497 108.423 118.627 100.312 118.627H100.315Z" fill="#FB923C"/>
<path d="M107.798 98.7595C107.798 94.7199 104.157 91.4959 99.855 91.944C96.5939 92.2858 93.9609 94.7844 93.5679 97.9084C93.4235 99.0626 93.578 100.165 93.9676 101.161L99.4687 110.405C99.9927 111.288 101.319 111.288 101.847 110.405C103.768 107.174 107.348 101.161 107.348 101.161C107.64 100.413 107.801 99.6042 107.801 98.7595H107.798ZM102.021 101.819C99.0959 102.918 96.3521 100.281 97.494 97.4732C97.813 96.6897 98.4679 96.0611 99.284 95.7548C102.209 94.6554 104.953 97.2926 103.811 100.101C103.492 100.884 102.837 101.513 102.021 101.819Z" fill="#FB923C"/>
<path d="M108.243 114.296C109.005 115.296 109.769 116.296 110.531 117.296C111.749 118.893 112.965 120.489 114.184 122.085C114.465 122.453 114.745 122.823 115.026 123.19C115.356 123.623 115.678 123.961 116.228 124.11C116.709 124.241 117.351 124.183 117.778 123.908C118.205 123.633 118.586 123.222 118.701 122.711C118.816 122.2 118.818 121.584 118.498 121.165C117.737 120.165 116.972 119.165 116.21 118.165C114.992 116.569 113.776 114.972 112.558 113.376C112.277 113.009 111.996 112.639 111.715 112.271C111.386 111.838 111.063 111.5 110.514 111.352C110.033 111.22 109.391 111.279 108.963 111.554C108.536 111.829 108.155 112.24 108.04 112.751C107.926 113.262 107.923 113.877 108.243 114.296Z" fill="#FB923C"/>
<path d="M99.9214 179.734C55.1926 179.734 18.9507 142.69 20.2263 97.6592C21.4196 55.7214 55.3211 21.6318 97.2261 20.2422C134.029 19.0225 165.559 42.9069 175.99 76.0599C176.361 77.2281 177.446 78.0206 178.675 78.0206C180.306 78.0206 181.489 76.4407 181.01 74.8813C170.193 39.9529 137.413 14.5967 98.8927 15.0547C52.8934 15.6054 15.4684 53.1636 15.0518 99.1928C14.63 146.37 52.8625 184.88 99.9163 184.88C137.928 184.88 170.178 159.745 180.949 125.213C181.463 123.571 180.213 121.904 178.495 121.904C177.374 121.904 176.371 122.629 176.037 123.7C165.914 156.127 135.618 179.729 99.9163 179.729L99.9214 179.734Z" fill="url(#paint0_linear_1001_9681)"/>
<defs>
<linearGradient id="paint0_linear_1001_9681" x1="98.083" y1="15.0486" x2="98.083" y2="184.88" gradientUnits="userSpaceOnUse">
<stop stop-color="#FB923C"/>
<stop offset="1" stop-color="#2E1065"/>
</linearGradient>
</defs>
</svg>
