<svg viewBox="0 0 12 12" xmlns="http://www.w3.org/2000/svg">
<path d="M6.10832 11.9993C2.74 11.9993 0 9.30804 0 5.99964C0 2.69125 2.74 0 6.10832 0C7.45026 0 8.72295 0.418113 9.78935 1.20852C10.8485 1.99391 11.6036 3.06998 11.9725 4.32218C12.0789 4.68301 11.8675 5.06032 11.5001 5.16485C11.1327 5.26938 10.7486 5.06175 10.6422 4.70091C10.0627 2.7342 8.19813 1.36102 6.10832 1.36102C3.5039 1.36102 1.38494 3.44228 1.38494 6.00036C1.38494 8.55844 3.5039 10.6397 6.10832 10.6397C8.1646 10.6397 9.97013 9.35243 10.5999 7.43583C10.7173 7.07858 11.108 6.88241 11.4717 6.99767C11.8354 7.11294 12.0351 7.49669 11.9178 7.85395C11.1029 10.334 8.76814 12 6.10832 12V11.9993Z" fill="white"/>
<path d="M8.61215 5.24567C8.61215 3.84074 7.37926 2.71833 5.9216 2.87527C4.81702 2.99417 3.92564 3.86262 3.79154 4.94984C3.74234 5.35125 3.7954 5.73554 3.9266 6.08177L5.78944 9.29683C5.96694 9.60407 6.41649 9.60407 6.594 9.29683C7.24517 8.17347 8.4578 6.08177 8.4578 6.08177C8.5562 5.82115 8.61118 5.53959 8.61118 5.24567H8.61215ZM6.6567 6.31006C5.66595 6.69245 4.73598 5.77549 5.12379 4.7986C5.23184 4.52656 5.45372 4.30778 5.72962 4.20125C6.72037 3.81887 7.65034 4.73582 7.26253 5.71271C7.15449 5.98475 6.9326 6.20353 6.6567 6.31006Z" fill="white"/>
</svg>
