<svg viewBox="0 0 280 52" xmlns="http://www.w3.org/2000/svg">
<path d="M90.2507 45.8258C90.2507 47.1173 90.5616 48.1732 91.2682 48.9085C91.9747 49.6439 93.0016 49.9738 94.264 49.9738C95.5264 49.9738 96.5815 49.6438 97.3069 48.9179C98.0228 48.1826 98.3432 47.1268 98.3432 45.8352V31.5717H110.609C114.745 31.5717 118.07 30.5819 120.538 28.5456C123.091 26.4716 124.316 23.0777 124.316 18.4866C124.316 13.8955 123.091 10.5111 120.538 8.48428C118.07 6.49512 114.745 5.52411 110.618 5.52411H94.4053C93.1146 5.52411 92.0501 5.84464 91.3247 6.57997C90.5899 7.3153 90.2696 8.37115 90.2696 9.66269V45.8447L90.2507 45.8258ZM109.601 23.9073H98.3337V13.1037H109.601C111.655 13.1037 113.171 13.5467 114.217 14.3669C115.225 15.1588 115.772 16.4786 115.772 18.4678C115.772 20.4569 115.216 21.8428 114.217 22.6347C113.171 23.4548 111.655 23.8979 109.601 23.8979V23.9073Z" fill="#D4D4D8"/>
<path d="M49.8734 48.0977C53.0576 50.0115 56.6658 50.9636 60.679 50.9636C64.6923 50.9636 68.2533 50.0115 71.3622 48.0977C74.5087 46.184 76.9675 43.4878 78.7386 40.0185C80.5568 36.5022 81.4612 32.4013 81.4612 27.7442C81.4612 23.0871 80.5568 18.9485 78.7386 15.4699C76.9675 11.9629 74.5087 9.23842 71.3622 7.32468C68.2533 5.3638 64.6923 4.39279 60.679 4.39279C56.6658 4.39279 53.0576 5.3638 49.8734 7.32468C46.7269 9.23842 44.2681 11.9629 42.497 15.4699C40.7165 18.9485 39.8403 23.04 39.8403 27.7442C39.8403 32.4484 40.7259 36.5022 42.497 40.0185C44.2775 43.4878 46.7363 46.1934 49.8734 48.1072V48.0977ZM71.4281 35.8705C70.4201 38.1614 69.007 39.9337 67.1793 41.2064C65.3611 42.4319 63.2038 43.0541 60.6696 43.0541C58.1354 43.0541 56.0252 42.4319 54.1599 41.2064C52.2946 39.9337 50.8343 38.1614 49.7886 35.8705C48.7806 33.542 48.2719 30.8269 48.2719 27.7348C48.2719 24.6426 48.7806 21.8899 49.7886 19.599C50.8343 17.2705 52.2946 15.4981 54.1505 14.2726C56.0158 12.9999 58.1731 12.3589 60.6602 12.3589C63.1473 12.3589 65.3423 12.9999 67.1605 14.2632C68.9787 15.4887 70.4012 17.261 71.3998 19.5896C72.4455 21.8899 72.9731 24.5955 72.9731 27.7348C72.9731 30.8741 72.4455 33.542 71.3998 35.8705H71.4281Z" fill="#D4D4D8"/>
<path d="M13.1137 45.8258C13.1137 47.1173 13.434 48.1826 14.1688 48.9085C14.9036 49.6438 15.9587 49.9643 17.2494 49.9643C18.54 49.9643 19.5669 49.6344 20.2923 48.9085C21.0083 48.1732 21.3286 47.1173 21.3286 45.8258V13.1036H30.1747C31.4747 13.1036 32.5393 12.8208 33.2835 12.1609C34.0372 11.4916 34.3763 10.5205 34.3763 9.3327C34.3763 8.14486 34.0372 7.14557 33.2929 6.4668C32.5487 5.79746 31.4841 5.50522 30.1841 5.50522H4.14513C2.86391 5.50522 1.80878 5.79746 1.07397 6.4668C0.339147 7.14557 0 8.12601 0 9.3327C0 10.5394 0.329726 11.4916 1.07397 12.1515C1.80878 12.8114 2.85449 13.0942 4.13571 13.0942H13.1043V45.8163L13.1137 45.8258Z" fill="#D4D4D8"/>
<path d="M249.169 8.22028C248.095 6.41967 246.494 5.50522 244.412 5.50522C242.952 5.50522 241.765 5.77861 240.907 6.40081C240.022 7.03244 239.654 8.18257 239.654 9.6438V45.8258C239.654 47.1173 239.975 48.1732 240.691 48.9085C241.407 49.6438 242.452 49.9643 243.724 49.9643C244.996 49.9643 246.042 49.6438 246.767 48.9085C247.483 48.1732 247.803 47.1173 247.803 45.8258V20.2212L255.745 33.872C256.668 35.6726 257.987 36.6624 259.702 36.6624C261.416 36.6624 262.735 35.6631 263.658 33.872L271.534 20.2307V45.8258C271.534 47.1173 271.854 48.1826 272.589 48.9085C273.324 49.6344 274.379 49.9643 275.67 49.9643C276.96 49.9643 278.025 49.6438 278.75 48.9085C279.485 48.1732 279.806 47.1173 279.806 45.8258V9.6438C279.806 8.35226 279.485 7.28698 278.75 6.56108C278.025 5.82575 276.96 5.50522 275.67 5.50522C274.379 5.50522 273.305 5.67491 272.438 6.04257C271.572 6.42909 270.837 7.20213 270.234 8.28627L259.768 25.9436L249.179 8.22028H249.169Z" fill="#D4D4D8"/>
<path d="M221.228 31.138C224.082 30.6007 226.381 29.394 228.076 27.4897C229.923 25.378 230.799 22.3518 230.799 18.4678C230.799 13.8767 229.574 10.4923 227.021 8.46539C224.553 6.47623 221.228 5.50522 217.101 5.50522H200.888C199.598 5.50522 198.533 5.82575 197.808 6.56108C197.073 7.2964 196.752 8.35226 196.752 9.6438V45.8258C196.752 47.1173 197.063 48.1732 197.77 48.9085C198.476 49.6438 199.503 49.9738 200.766 49.9738C202.028 49.9738 203.083 49.6532 203.809 48.9179C204.525 48.1826 204.845 47.1267 204.845 45.8352V31.5717H212.768L219.786 46.891C220.21 47.8903 220.813 48.6728 221.623 49.1913C222.424 49.7192 223.394 49.9643 224.506 49.9643H225.684C226.984 49.9643 227.992 49.5307 228.472 48.5125C228.924 47.4944 228.745 46.2783 228.095 44.9396L221.237 31.1475L221.228 31.138ZM216.112 23.9073H204.845V13.1036H216.112C218.166 13.1036 219.683 13.5467 220.728 14.3669C221.736 15.1588 222.292 16.4786 222.292 18.4678C222.292 20.4569 221.736 21.8427 220.728 22.6346C219.683 23.4548 218.166 23.8979 216.112 23.8979V23.9073Z" fill="#D4D4D8"/>
<path d="M187.501 29.8465C185.674 29.262 183.705 30.2613 183.111 32.0808C180.549 39.9526 173.219 45.2319 164.854 45.2319C154.265 45.2319 145.654 36.6907 145.654 26.1887C145.654 15.6867 154.265 7.14558 164.854 7.14558C173.351 7.14558 180.926 12.7831 183.281 20.8529C183.818 22.6912 185.758 23.747 187.605 23.2191C188.509 22.9646 189.254 22.3707 189.696 21.5505C190.139 20.7397 190.243 19.8064 189.988 18.9203C188.406 13.4996 185.174 8.84249 180.634 5.43924C176.064 2.01713 170.61 0.207092 164.863 0.207092C150.431 0.207092 138.692 11.8592 138.692 26.1887C138.692 40.5182 150.431 52.1609 164.863 52.1703C176.253 52.1703 186.258 44.9585 189.753 34.2208C190.035 33.344 189.97 32.4107 189.546 31.5906C189.122 30.761 188.396 30.1482 187.501 29.8559V29.8465Z" fill="#D4D4D8"/>
<path d="M166.55 40.2448C167.869 38.02 169.762 34.843 171.316 32.2222L166.55 40.2448L173.295 28.8944L174.086 27.5557L174.105 27.5274V27.5086L174.124 27.4897C174.538 26.4338 174.764 25.2931 174.764 24.1053V23.8696C174.623 18.2792 169.555 13.8767 163.591 14.4989C159.013 14.9797 155.301 18.4961 154.745 22.908C154.538 24.539 154.764 26.0945 155.311 27.4991V27.518L155.329 27.5368L162.885 40.2448C163.695 41.6118 165.739 41.6118 166.559 40.2448H166.55ZM160.586 22.4367C161.001 21.4185 161.849 20.6078 162.913 20.2024C166.766 18.7506 170.308 22.2198 168.829 25.8682C168.415 26.8864 167.567 27.6971 166.502 28.1025C162.649 29.5543 159.107 26.085 160.586 22.4367Z" fill="#D4D4D8"/>
</svg>
